# xmcd
#
# Track frame offsets:
#	150
#	18456
#	33544
#	41109
#	55389
#	72601
#	83077
#	87746
#	97243
#	109634
#	124988
#	137694
#	146184
#	159560
#	166464
#	175879
#	185467
#	198994
#	209773
#	220179
#	234764
#	248206
#	257516
#	270672
#	282787
#	292381
#	300367
#	310172
#	320781
#
# Disc length: 4408 seconds
#
# Revision: 0
# Processed by: cddbd v1.5.2PL0 Copyright (c) Steve Scherf et al.
# Submitted via: dBpowerAMP V4.0
#
DISCID=c711361d
DTITLE=dj - vol1
DYEAR=1900
DGENRE=Blues
TTITLE0=vol
TTITLE1=vol
TTITLE2=vol
TTITLE3=vol
TTITLE4=vol
TTITLE5=vol
TTITLE6=vol
TTITLE7=vol
TTITLE8=vol
TTITLE9=vol
TTITLE10=vol
TTITLE11=vol
TTITLE12=vol
TTITLE13=vol
TTITLE14=vol
TTITLE15=vol
TTITLE16=vol
TTITLE17=vol
TTITLE18=vol
TTITLE19=vol
TTITLE20=vol
TTITLE21=vol
TTITLE22=vol
TTITLE23=vol
TTITLE24=vol
TTITLE25=vol
TTITLE26=vol
TTITLE27=vol
TTITLE28=vol
EXTD=house mix vol 1
EXTT0=
EXTT1=
EXTT2=
EXTT3=
EXTT4=
EXTT5=
EXTT6=
EXTT7=
EXTT8=
EXTT9=
EXTT10=
EXTT11=
EXTT12=
EXTT13=
EXTT14=
EXTT15=
EXTT16=
EXTT17=
EXTT18=
EXTT19=
EXTT20=
EXTT21=
EXTT22=
EXTT23=
EXTT24=
EXTT25=
EXTT26=
EXTT27=
EXTT28=
PLAYORDER=
